<svg xmlns="http://www.w3.org/2000/svg" xml:space="preserve" viewBox="0 0 140 160"><style>path{fill:#fff!important}circle{stroke:#fff!important}</style><g class="white"><g class="emblem"><path d="M74.9 76.8c-1.2-.4-3.2-.5-4.9.9-1.7-1.4-3.7-1.3-4.9-.9-1 .4-1.8.6-3.3.6 1.5 3 4.6 5.1 8.2 5.1s6.7-2.1 8.2-5.1c-1.5 0-2.3-.3-3.3-.6"/><path d="M70 0C45.3 0 25.2 20 25.2 44.7c0 21.2 14.7 38.9 34.5 43.6C44 79.9 37.6 60.6 45.2 44.5c1.2 6.4 5.4 12.1 11.6 15C48.7 40.6 54.7 18.3 71.4 6 68.1 17.2 73.1 27.5 84 35.3c12.4 8.9 12.9 27.1 2 36.9 4.3-1 8.4-3.4 11.4-7.1-1.9 9.6-7.9 18.3-17.1 23.2 19.8-4.6 34.5-22.4 34.5-43.6C114.8 20 94.7 0 70 0"/></g><g class="paris2024"><path d="M137.9 103.9v4.6c-1-.7-2.3-.9-3.4-1.6-.9-.5-1.2-1.5-1.2-2.5v-4.2h-2.2v4.2c0 1.4.4 2.9 1.6 3.8.8.6 1.7.9 2.6 1.2.8.3 1.7.6 2.2 1.3.4.5.5 1.1.5 1.8v1.3h2.1v-9.9zm-15.3 3.7c.5-.6 1-1.2 1.3-1.9q.45-1.05.3-2.1c-.2-1.4-1.2-2.6-2.5-3.1-1.3-.6-3-.6-4.3.1-1.3.6-2.2 1.9-2.3 3.3-.1 1.5.6 2.8 1.8 3.7l1.2-1.5c-.4-.4-.8-.9-.9-1.5s0-1.1.4-1.6c.7-.9 2.1-1.2 3.2-.7.5.3 1 .7 1.1 1.2.2.6.1 1.2-.1 1.7-.3.5-.6 1-1 1.5-1.5 1.8-2.9 3.5-4.4 5.3-.5.6-1 1.3-1.6 1.9h9.8V112H119zm-16.5 1.4c-.8 1.9-2.9 3.2-5 3-2.1-.1-3.9-1.6-4.5-3.5-.6-2 .1-4.2 1.8-5.5s4.1-1.3 5.9-.1c2 1.3 2.8 3.9 1.8 6.1m.5-7c-2.2-2.1-5.6-2.6-8.3-1.4-2.8 1.2-4.4 4.1-4.2 7 .3 2.9 2.5 5.4 5.4 6.1s6.2-.3 7.9-2.8c1.8-2.4 1.7-5.8-.1-8.2-.2-.2-.5-.4-.7-.7m-20.5 5.6c.5-.6 1-1.2 1.3-1.9q.45-1.05.3-2.1c-.2-1.4-1.2-2.6-2.5-3.1-1.3-.6-3-.6-4.3.1-1.3.6-2.2 1.9-2.3 3.3-.1 1.5.6 2.8 1.8 3.7l1.2-1.5c-.4-.4-.8-.9-.9-1.5s0-1.1.4-1.6c.7-.9 2.1-1.2 3.2-.7.5.3 1 .7 1.1 1.2.2.6.1 1.2-.1 1.7-.3.5-.6 1-1 1.5-1.5 1.8-2.9 3.5-4.4 5.3l-1.6 1.9h9.8V112h-5.6zm-20.2-.3c-.8-.6-1.7-.9-2.6-1.3-.9-.3-1.8-.6-2.5-1.3-.6-.6-.4-1.6.1-2.2.6-.6 1.6-.7 2.4-.5.9.3 1.5 1.1 1.5 2H67c0-1-.3-1.9-1-2.7-.7-.7-1.6-1.1-2.6-1.3-1-.1-2.1 0-3 .5s-1.6 1.2-1.9 2.1-.2 2 .2 2.8c.5.9 1.4 1.4 2.4 1.8s2.2.7 3.2 1.3c.4.3.7.6.8 1s.1.9-.1 1.3c-.5 1-1.8 1.3-2.8 1.1-1.1-.2-2-1.1-2-2.3h-2.1c0 1.1.4 2.1 1.2 2.9s1.9 1.2 3.1 1.3 2.4-.1 3.4-.8c.9-.6 1.5-1.6 1.6-2.6-.1-1.1-.5-2.3-1.5-3.1m-16.7-4v10.5h2.2V103c-.8 0-1.5.1-2.2.3m0-1.2c.7-.2 1.4-.3 2.2-.3v-1.6h-2.2zm-12.4.1c1.4 0 2.8.7 2.9 2.1.1.7-.1 1.4-.6 1.9-.5.6-1.3.9-2 1.3-.9.4-1.7.8-2.5 1.5v-6.8zm3.3 6.5c-.2-.1-.5-.2-.8-.3.7-.4 1.4-.8 1.9-1.4.4-.6.7-1.2.8-1.9.2-1.5-.3-2.9-1.6-3.8-1.7-1.2-3.8-1-5.8-1h-2.1v13.6h2.2v-1.2c0-.9.5-1.8 1.3-2.2.8-.5 1.9-.5 2.7-.2.8.4 1.4 1.2 1.5 2 .1.5 0 1.1 0 1.6h2.2c0-.7 0-1.5-.1-2.2-.3-1.3-1.1-2.4-2.2-3m-17.1 0c-1.3-1.3-3.2-1.7-5-1.4v-2.2c0-.4 0-.8.1-1.2.2-.8.8-1.4 1.6-1.6.8-.3 1.7-.1 2.4.4s1 1.3 1 2.1v4.2c0-.2-.1-.3-.1-.3m0-8.1c-1.9-1-4.6-.7-6 .9-.7.8-1.1 1.8-1.1 2.8v9.5H18v-4.5c1.3-.2 2.7 0 3.8.7 1 .7 1.4 1.7 1.4 2.8v.9h2.2v-9.1c-.1-1.6-.8-3.2-2.4-4M6.9 106c-.5.7-1.4 1.2-2.2 1.6-.9.4-1.8.9-2.5 1.5v-6.8h2.1c1.2 0 2.4.3 2.9 1.5.2.6.1 1.5-.3 2.2m.1-5.2c-1-.5-2.2-.5-3.3-.5H0v13.6h2.2c0-.8-.1-1.6.3-2.3.5-1.2 1.8-1.7 2.9-2.2 1.2-.6 2.5-1.1 3.3-2.2.7-1 .9-2.2.7-3.4-.2-1.4-1.2-2.5-2.4-3"/></g><g class="olympics fade"><circle cx="44.9" cy="137.8" r="10.5" fill="none" stroke="#0081C8" stroke-miterlimit="10" stroke-width="2" class="ring blue"/><circle cx="70" cy="137.8" r="10.5" fill="none" stroke="#000" stroke-miterlimit="10" stroke-width="2" class="ring black"/><circle cx="95" cy="137.8" r="10.5" fill="none" stroke="#EE334E" stroke-miterlimit="10" stroke-width="2" class="ring red"/><circle cx="57.3" cy="148.5" r="10.5" fill="none" stroke="#FCB131" stroke-miterlimit="10" stroke-width="2" class="ring yellow"/><circle cx="82.5" cy="148.5" r="10.5" fill="none" stroke="#00A651" stroke-miterlimit="10" stroke-width="2" class="ring green"/></g></g></svg>